<?xml version="1.0" encoding="utf-8"?>
<!-- Generator: Adobe Illustrator 24.1.2, SVG Export Plug-In . SVG Version: 6.00 Build 0)  -->
<svg version="1.1" id="Ebene_1" xmlns="http://www.w3.org/2000/svg" xmlns:xlink="http://www.w3.org/1999/xlink" x="0px" y="0px"
	 viewBox="0 0 128 128" enable-background="new 0 0 128 128" xml:space="preserve">
<g>
	<path fill="#7DC0E6" d="M17.1,106.2c-2.9-2.8-5.4-6-7.5-9.4c-3.6-5.7-6.1-11.9-7.8-18.4C0,71.9-0.3,65.2,0.3,58.4
		c0.5-4.9,1.4-9.6,2.9-14.2C4.4,40.5,6,37,7.7,33.5c2.5-5,5.8-9.5,9.5-13.4c3.7-3.9,7.6-7.7,12.3-10.4c4.5-2.6,9.1-5.1,14.1-6.8
		c4.9-1.6,10-2.7,15.2-2.9C64.8-0.1,70.7,0,76.6,1c3.2,0.6,6.3,1.4,9.4,2.5c5.2,1.9,10.2,4.3,14.8,7.4c3.7,2.4,7,5.4,10.1,8.7
		c3.6,3.9,6.6,8.2,9.5,12.6c0.7,1,1,2.3,1.5,3.4c-0.6-0.8-1.5,0.4-2.2-0.4c-1.1-1.3-2.4-1.9-3.8-0.4c-0.2,0.2-0.5,0.4-0.7,0.5
		c-1.6,0.5-1.5,1.5-0.7,2.7c0.8,1.2,1.5,2.3,2.3,3.5c2.7,4.4,4.6,9,2.2,14.2c-0.8,1.7-0.7,4.4-3.8,4.3c-1.8,0-1.8-0.8-1.5-2.1
		c0.6-2.5,1.2-4.9,1.9-7.4c0.4-1.4,0.1-2.4-0.6-3.5c-2.2-3.5-5.3-6.3-6.8-10.4c1.3,6.6,2.2,13.2,1.4,20c-0.1,1.3,0.4,2.3,1.1,3.3
		c1.6,2.5,2.8,5.2,3.7,8.1c-0.6,1.9-1.1,3.8-1.7,5.7c-0.7,1.8-1.6,3.6-2.4,5.3c-0.7,1.6-1.7,3.1-2.6,4.6c-0.7,1.2-2.4,2-2.1,3.6
		c0.6,3.3,0.9,6.5-0.4,10.1c2.6-1.5,4.6-3.2,6.6-5c0.5,0,1-0.2,1.1-0.7c0.6-2.9,0.8-6,0.3-8.9c-0.5-2.7-1.2-5.3-0.2-8
		c0.5-1.3,0.4-2.8,1.6-3.8c2.8,3.2,4.1,7.2,5.2,11.3c1.7,6.1-2.1,10.4-6.2,12.9c-1.8,1.1-3.9,1.6-5.9,2.1c-1.9,0.5-3.6,1.1-4.7,2.9
		c-0.9,1.5-2.3,2.7-4,3.5c-1.2,0.6-2.2,1.7-3.9,1.4c7-5.6,10.5-12,8.9-16.6c-0.5,0.6-1.1,1.2-1.5,1.8c-1.9,3.4-4.3,6.3-7.1,9
		c-5.6,5.3-12.1,6.5-17.9,3.4l0,0c4.8,0.3,8.9-1,11.2-5.8c0.5-1.1,1.2-2.5,0-3.4c-1.5-1.2-3.2-2.1-4.9-2.8c1.5-1.6,0.4-2.9-0.5-4.3
		c-1.3-1.9-1.2-4-0.1-5.8c2.2-3.8,5-6.9,8.8-9.2c0.9-0.6,2-1,2.5-2.4c-0.6,0.3-0.9,0.5-1.2,0.7c-1.8,1.2-3.5,2.3-5.2,3.6
		c-2.9,2.2-6.1,0.7-9.2,0.9c2.5-1.3,4.7-2.8,7-4.3c1.4,0.3,2-1.1,3.1-1.5c1.4-0.2,2.9-2,2.8-3.4c0.5-0.9,1-1.8,1.5-2.7
		c1.6-1.3,2.8-3,4.5-4.2c0-0.1,0-0.1,0.1-0.1c0.1-0.1,0.2-0.1,0.3-0.2c0.3-0.2,0.8-0.4,1-0.7c0.2-0.4,1.4-0.3,0.6-1.2
		c-0.7-0.2-1-0.6-1.1-1.4c-0.5-2.7-0.3-5.5-1.2-8.2c-0.7-2,0.5-4.1-0.4-6.1c-0.1-0.3,0-0.7,0-1c0.1-0.4,0.3-0.9,0.8-0.7
		c0.5,0.2,0.2,0.6,0,0.9c-0.1,0.3,0,1,0.1,0.8c0.7-1,2.3-0.9,2.6-1.5c0.7-1.7,2.1-1.4,3.2-1.4c1.2,0,1.8-0.5,1.7-1.7
		c-0.2-1.7,0.8-2.3,2-2.8c0.5-0.2,1-0.5,1.4-0.8c0.1-0.1,0.3-0.4,0.2-0.5c-0.1-0.3-0.3-0.6-0.5-0.7c-0.7-0.2-0.7-0.2-0.5-1
		c0.1-0.4,0-0.7-0.2-1c-2.3-4.1-5.6-7.4-8.5-11c-2.9-3.5-6.3-6.6-10-9.1c-4.5-3.1-9.3-5.8-14.7-6.7c-7-1.2-14-1.4-21.1,0.1
		c-5.4,1.2-10.3,3.3-15,6.3c-4.5,2.9-8,6.8-11.4,10.7c-5.5,6.4-10.2,13.5-14.9,20.5c-1.6,2.4-3.5,4.7-3.7,7.8c-0.2,3,0,6.1-0.3,9.1
		c-0.5,5.5,3,9,5.8,13.3c-0.2-2.2-0.3-4.1,0.3-5.9c0.8-2.9,2-5.7,3.6-8.2c0.3-0.4,0.7-0.8,1.3-0.7c0.6,0.1,0.6,0.6,0.8,1
		c0.2,0.5,0.8,1.5,1.2,1.2c2-1.1,1.6,0.7,1.8,1.5c0.7,2.5,0.8,5.2,2.3,7.5c0.4,0.6,0.8,1.1,1.7,1c0.1,0.5,0.2,0.9,0.7,1.3
		c0.2-0.8,0.2-1.4-0.8-1.3c0.1-0.5-0.3-1.1,0.5-1.4c0.3-0.1,0.5-0.2,0.8,0.1c4,3.8,8,7.5,11.9,11.4c2.1,2.1,3.8,4.6,2.5,7.7
		c-0.7,1.8-1.6,3.4-0.5,5.4c-1.1,0.9-2.4,1.5-3.7,2.1c-1.3,0.5-1.7,1.4-1.2,2.7c1.1,2.4,2.7,4.4,5,5.9c2.2,1.4,4.5,1.6,7,1.2
		c0.2,0,0.6-0.2,0.7,0.2c0,0.1-0.2,0.3-0.3,0.4c-5.2,1.9-10.2,2-14.9-1.3c-3.8-2.8-6.9-6.3-9.2-10.5c-0.3-0.6-0.7-1.3-1.4-1.1
		c-0.7,0.1-0.6,0.9-0.6,1.5c0,2.6,0.8,5.1,1.9,7.4c1.2,2.6,3.1,4.4,5.6,5.7c-2.6-0.9-4.6-2.7-6.5-4.6c-1.8-1.8-3.9-2.4-6.3-2
		c0.5,1.3,0.2,1.2-0.4,2.3c-0.4,0.7-1.9,1.7-0.5,3c0.4,0.4,0.5,0.8-0.2,1c-0.1-0.1-0.1-0.2-0.2-0.3c0,0-0.1,0.1-0.1,0.1
		c0.1,0.1,0.2,0.1,0.3,0.2C16.9,105.1,17,105.7,17.1,106.2z M15.6,82.1c-0.7,1.8-0.7,3.6-0.9,5.3c0,0.1,0.1,0.3,0.3,0.4
		c2,1.1,3.8,2.7,5.8,4.5c-0.5-1.3,1.1-2.1,0.3-3C19.1,87,17.2,84.7,15.6,82.1z M88.8,86.4c0.2,0.4,0,1.2,0.8,1.3
		c0.7,0.1,1.3-0.2,1.6-1c0.4-1.2,0.8-2.5,1.2-3.7c0.1-0.2,0.4-0.7-0.3-0.6C90.7,82.6,88.9,84.7,88.8,86.4z M16.8,76.7
		c0.3,1.9,1.1,3.4,2.2,4.4C20.8,78.5,18.7,77.6,16.8,76.7z M34.1,82.4c0.3,1.9,0.6,3.5,1.7,4.9c0.3,0.3,0.6,0.5,1,0.3
		c0.1-0.1,0.3-0.4,0.3-0.5C36.1,85.6,35.9,83.7,34.1,82.4z M107,57.3c-0.1,0-0.2-0.1-0.3-0.1c-0.6,1.5-1.2,2.9-1.8,4.4
		c-0.1,0.3-0.4,0.6,0.1,0.9c0.5,0.3,0.7-0.1,0.8-0.4C106.1,60.5,106.5,58.9,107,57.3z"/>
	<path fill="#345AA4" d="M114.1,68c-0.9-2.9-2-5.6-3.7-8.1c-0.7-1-1.2-2-1.1-3.3c0.7-6.8-0.1-13.4-1.4-20c1.4,4,4.6,6.9,6.8,10.4
		c0.7,1.1,1,2.1,0.6,3.5c-0.7,2.4-1.3,4.9-1.9,7.4c-0.3,1.3-0.4,2,1.5,2.1c3.1,0.1,3-2.6,3.8-4.3c2.4-5.2,0.5-9.8-2.2-14.2
		c-0.7-1.2-1.5-2.4-2.3-3.5c-0.8-1.2-0.8-2.1,0.7-2.7c0.3-0.1,0.5-0.3,0.7-0.5c1.5-1.4,2.7-0.8,3.8,0.4c0.7,0.8,1.6-0.4,2.2,0.4
		c0,0,0,0,0,0c-0.3,1.3,0.2,2.2,1.3,2.7c0.9,2.6,1.9,5.1,2.7,7.7c2.2,7.5,2.5,15.1,2,22.9c-0.3,5.3-1.4,10.5-3.3,15.4
		c-1.4,3.7-2.8,7.5-4.9,10.9c-2.3,3.7-4.8,7.3-7.8,10.6c-1.9,2.1-3.8,4.3-5.9,6c-2.1,1.7-3.9,3.9-6.5,4.9c-4.2-0.9-8.4-1.8-12.6-2.6
		c-1.2-0.3-2.5-0.6-3.7-0.9c-2.7-1.1-5.7-1.7-8.2-3.4c-1.4-1-3.4-1.4-4.3-3c-1.8-3-2.5-3.4-5.7-2.2c-0.5,0.2-1.3,0.7-1.6-0.3
		c2.6-1.5,5.2-3.1,7.8-4.6c2.9-1.7,5.8-3.2,8.3-5.6c1.3-1.2,2.8-2.3,4.2-3.4c1.8,0.7,3.5,1.6,4.9,2.8c1.2,0.9,0.5,2.3,0,3.4
		c-2.3,4.8-6.4,6.1-11.2,5.8c-0.1,0-0.2-0.1-0.3-0.1c0,0,0,0-0.1,0c0.1,0,0.2,0.1,0.3,0.1c5.8,3.1,12.3,1.8,17.9-3.4
		c2.8-2.6,5.3-5.6,7.1-9c0.4-0.7,0.9-1.2,1.5-1.8c1.6,4.5-1.9,11-8.9,16.6c1.6,0.2,2.7-0.8,3.9-1.4c1.6-0.8,3-2,4-3.5
		c1.1-1.9,2.8-2.4,4.7-2.9c2-0.5,4.1-1.1,5.9-2.1c4.1-2.4,7.9-6.7,6.2-12.9c-1.1-4.1-2.4-8-5.2-11.3C114.2,70,114.2,69,114.1,68z"/>
	<path fill="#7DC0E6" d="M86.8,114.2c4.2,0.9,8.4,1.8,12.6,2.6c-2.7,1.8-5.6,3.4-8.5,4.8c-6,2.9-12.2,4.9-18.7,5.8
		c-3.8,0.5-7.7,0.8-11.6,0.5c-0.7,0-1.2-0.1-0.7-1.1c1.6-3.1-0.1-5.4-2.1-7.4c-3.1-3-3.8-6.4-2.9-10.5c0.1-0.2,0.4-0.6-0.2-0.8
		c0.5-0.2,0.5-0.7,0.5-1.1c0.1-2.4,0.1-4.9,0.1-7.3c0.1,0.9,0.7,1.1,1.4,1.4c2.1,0.9,4.1,2,5.9,3.3c-0.1,0.2-0.2,0.5,0.2,0.6
		c0.4,0,0.2-0.3,0.3-0.5c0.1-0.1,0.3-0.1,0.4-0.2c0.4,1.1,1.1,0.5,1.6,0.3c3.2-1.2,3.9-0.9,5.7,2.2c0.9,1.5,2.9,2,4.3,3
		c2.5,1.7,5.4,2.3,8.2,3.4c0.1,0.6-0.3,0.7-0.7,1c-0.4,0.2-1.1,0.3-1.1,0.9c-0.1,1.2-0.9,1.5-1.8,1.6c-1.8,0.1-3.5,0.2-5.3-0.2
		c-2.5-0.5-4.8-1.8-7.1-2.8c-0.1-0.1-0.2-0.1-0.2-0.2c0,0,0,0.1,0,0.1c0.1,0,0.2,0,0.3,0.1c0.5,1.1,1.6,1.7,2.5,2.1
		c3.2,1.4,6.4,2.7,9.8,3.5c0.9,0.2,1.2,0,1.4-0.9c0.2-1.3,0.8-1.9,2.2-2C84.4,116.1,86,115.8,86.8,114.2z M66.3,113.1
		c-0.1-0.1-0.2-0.2-0.3-0.2c0,0-0.1,0-0.2,0.1c0,0.1,0.1,0.2,0.1,0.2C66,113.2,66.1,113.1,66.3,113.1z"/>
	<path fill="#345AA4" d="M55.2,99.8c0,2.4-0.1,4.9-0.1,7.3c0,0.4,0,0.9-0.5,1.1c-0.2,0.2-0.5,0.4-0.7,0.6c-0.1,0.1-0.1,0.2-0.2,0.2
		c-0.1,0-0.1,0.1-0.1,0.1c-3.3,1.8-6.9,2.7-10.5,3.9c-2.7,0.9-5.5,1.7-8.3,2.3c-1.7,0.3-3.1,1.3-4.7,1.6c-4.7-2.9-9-6.3-12.7-10.4
		c-0.1-0.1-0.1-0.1-0.2-0.2c0,0-0.1-0.1-0.1-0.1c-0.1-0.6-0.2-1.1-0.3-1.7c0,0,0,0,0,0c0.7-0.2,0.6-0.7,0.2-1
		c-1.4-1.3,0.1-2.3,0.5-3c0.6-1.2,0.9-1,0.4-2.3c2.4-0.4,4.5,0.2,6.3,2c1.9,1.9,3.9,3.7,6.5,4.6c-2.5-1.3-4.4-3.1-5.6-5.7
		c-1.1-2.3-1.9-4.8-1.9-7.4c0-0.6-0.1-1.4,0.6-1.5c0.7-0.1,1.1,0.5,1.4,1.1c2.2,4.2,5.3,7.7,9.2,10.5c4.7,3.4,9.7,3.2,14.9,1.3
		c0.1-0.1,0.3-0.3,0.3-0.4c-0.1-0.4-0.5-0.2-0.7-0.2c-2.5,0.4-4.8,0.2-7-1.2c-2.3-1.4-3.9-3.4-5-5.9c-0.6-1.3-0.1-2.2,1.2-2.7
		c1.3-0.6,2.6-1.2,3.7-2.1c2.2,1.8,4.3,3.6,6.6,5.2C50.6,97.5,52.7,99,55.2,99.8z M19.1,105.7c0-0.3-0.2-0.5-0.4-0.5
		c-0.5,0.1-0.8,0.4-0.8,0.9c0,0.2,0.1,0.4,0.3,0.3C18.5,106.2,19.1,106.2,19.1,105.7z"/>
	<path fill="#7DC0E6" d="M30.1,117c1.6-0.3,3-1.3,4.7-1.6c2.8-0.6,5.6-1.4,8.3-2.3c3.5-1.2,7.2-2.1,10.5-3.9
		c0.2,0.3,0.1,0.6-0.1,0.8c-1.7,2.6-1.2,5.2,0.2,7.7c0.3,0.6,0.9,1.3,0.5,1.8c-0.4,0.5-1.1-0.3-1.6-0.4c-4.4-1-8.8-1.2-13.2-0.3
		c-0.6,0.1-1.3,0.3-1.8,0.6c-1.7,1.2-3,0.2-4.4-0.6C32.1,118.2,31.1,117.6,30.1,117z"/>
	<path fill="#7DC0E6" d="M123.1,38.3c-1.1-0.6-1.6-1.5-1.3-2.7C122.4,36.4,122.8,37.3,123.1,38.3z"/>
	<path fill="#7DC0E6" d="M53.7,109c0.1-0.1,0.1-0.2,0.2-0.2C53.8,108.9,53.8,108.9,53.7,109z"/>
	<path fill="#7DC0E6" d="M17.2,106.4c0.1,0.1,0.1,0.1,0.2,0.2C17.3,106.5,17.3,106.4,17.2,106.4z"/>
	<path fill="#F1F8F9" d="M55.2,99.8c-2.5-0.8-4.6-2.3-6.8-3.8c-2.3-1.6-4.4-3.4-6.6-5.2c-1.1-1.9-0.2-3.5,0.5-5.4
		c1.3-3.2-0.4-5.7-2.5-7.7c-3.9-3.9-8-7.6-11.9-11.4c-0.3-0.3-0.5-0.2-0.8-0.1c-0.8,0.2-0.4,0.9-0.5,1.4l0,0c-0.8,0.1-1.2-0.3-1.7-1
		c-1.5-2.3-1.6-5-2.3-7.5c-0.2-0.8,0.2-2.6-1.8-1.5c-0.4,0.2-1-0.7-1.2-1.2c-0.2-0.4-0.1-0.9-0.8-1c-0.6,0-1,0.3-1.3,0.7
		c-1.7,2.5-2.8,5.3-3.6,8.2c-0.5,1.9-0.5,3.7-0.3,5.9c-2.9-4.3-6.4-7.8-5.8-13.3c0.3-3,0.1-6.1,0.3-9.1c0.2-3.1,2.1-5.5,3.7-7.8
		c4.8-7,9.4-14.1,14.9-20.5c3.4-4,6.9-7.9,11.4-10.7c4.7-3,9.6-5.1,15-6.3c7-1.6,14-1.3,21.1-0.1C79.7,3.2,84.5,5.8,89,9
		c3.7,2.6,7.1,5.6,10,9.1c2.9,3.6,6.1,6.9,8.5,11c0.2,0.3,0.3,0.6,0.2,1c-0.2,0.8-0.2,0.7,0.5,1c0.2,0.1,0.4,0.4,0.5,0.7
		c0,0.1-0.1,0.4-0.2,0.5c-0.4,0.3-0.9,0.6-1.4,0.8c-1.3,0.5-2.2,1.2-2,2.8c0.1,1.2-0.5,1.7-1.7,1.7c-1.2,0-2.5-0.4-3.2,1.4
		c-0.3,0.7-1.9,0.5-2.6,1.5c-0.1,0.2-0.2-0.5-0.1-0.8c0.2-0.3,0.5-0.7,0-0.9c-0.4-0.1-0.7,0.3-0.8,0.7c-0.1,0.3-0.2,0.7,0,1
		c1,2-0.2,4.1,0.4,6.1c0.9,2.6,0.8,5.4,1.2,8.2c0.1,0.8,0.4,1.2,1.1,1.4c-0.4,0.1-0.9,0.1-1.1,0.3c-1.1,1-2.3,1.3-3.6,0.8
		c0.5-4,0-7.9-0.6-11.9c-0.3-2.5-1.7-4.6-2.4-6.9c-0.1-0.3-0.4-0.7-0.8-0.6c-0.5,0.1-0.4,0.5-0.4,0.9c0.1,1.5-1.3,1.6-2.1,2.4
		c-0.1,0.1-0.7,0.1-0.7-0.3c0.2-1.5-1.6-1.5-1.6-2.1c0.3,0.4-0.3,1.6,0.2,2.4c1.7,2.8,2.1,5.9,3,9c0.1,0.4,0.1,1.2-0.1,1.3
		c-0.4,0.3-1-0.1-1.3-0.5c-1.5-1.9-2.7-4.1-3.4-6.4c-0.4-1.2-0.8-1.6-1.9-1.4c-1.5-3.2-3.1-6.4-4.6-9.7c-0.2-1.1-0.9-1.8-1.8-2.5
		c-0.8-3.1-1.7-6.2-3.3-9c-0.1,1.7-0.3,3.4-0.6,5c-0.7,0.9-0.7,2.1-1.4,3.4c-0.1-0.6-0.1-0.8-0.2-1.1c-0.2-0.6-1-0.8-1-0.2
		c0.1,2.6-1.3,4.6-2.3,6.8c-2.3,5.2-5,10.2-9.1,14.2c-0.7,0.7-1,0.6-1.6-0.1c-1.4-1.7-2.3-3.7-3.4-5.6c-1.1-1.9-2.4-3.9-3.2-5.9
		c-1.4-3.7-1.4-7.7-1.2-11.6c0-0.5,0.3-1.3-0.2-1.4c-0.5-0.1-0.6,0.8-0.9,1.3c0,0,0,0.1,0,0.1c-1.8,6.1-2,12,1.3,17.7
		c0.1,0.2,0.5,0.8,0.1,0.8c-1.4,0.1-2.8,0-4.2-0.1c-0.1,0-0.3-0.5-0.2-0.6c0.6-2,0.6-4.1,0.8-6.1c0.4-2.9,0.5-5.9,1-8.8
		c-0.8,1.7-1.4,3.5-2,5.2c-1.2,3.3-3.3,6.5-2.1,10.3c-0.4,0.1-0.7,0.2-1.1,0.3c1.2,0,1.7,0.6,1.9,1.7c0.2,0.9,0.7,1.7,1,2.5
		c0.2,0.6,0.4,1.1,0.6,1.7c-1.2,0.2-2.5,0.4-3.7,0.6c0,0.1,0,0.2,0.1,0.4c1.2-0.2,2.5-0.3,3.7-0.5c0.2,0.3,1,0.1,0.8,0.8
		c-0.2,0.6-0.6,0.2-1,0.2c-0.6,0.1-1.2,0.4-1.8,0.6c0.8,0.5,1.6-0.3,2.1,0.6c-2.9,0.1-5.9-0.4-8.7,0.9c-1-0.1-0.5-0.6-0.3-1.1
		c1.3-2.8,3.5-5.1,4.6-8.1c0.3-0.7,0.9-1.4,0.5-2.3c-0.6,0.3-0.9,0.8-1.3,1.3c-1.5,1.9-3.1,3.7-5.5,4.9c0.7-3.1,1.4-6.1,2.2-9
		c1.2-4.3,2.4-8.6,4.5-12.6c1.2-2.2,2.8-4.2,3.6-6.6c2.3-2.1,4.1-4.6,6.5-6.6c-2.5,1.8-4.9,3.8-6.6,6.5c-0.4,0.3-1.1,0.4-1.3,0.8
		c-1.4,3.1-4,5.4-5.6,8.5c-2.5,4.8-5,9.6-5.5,15.3c-0.4,3.6-0.4,7.2,0.1,10.8c-0.8,0.5-1.6,1.2-2.6,1.3c-0.1-0.1-0.2-0.3-0.3-0.4
		c-0.7-2.2-2-4.1-2.7-6.3c0,0.4,0,0.9,0.1,1.3c-0.2,0.4-0.1,0.9,0.1,1.3c0.5,1.6,1,3.2,1.6,4.8c0,0,0,0-0.1,0.1c0,0,0-0.1,0-0.1
		c0.9,1.1,0.5,2.4,0.8,3.6c0.7,3.5,3,6.1,6.1,7.7c2.5,1.3,5.1,2.2,7.6,3.2c0.2,0.1,0.5,0.1,0.7,0c0.4-0.2,0-0.4-0.1-0.6
		c-0.5-0.8-1.1-1.6-2.1-2l0,0c-0.1-0.1-0.2-0.2-0.3-0.4c-1.7-1.9-3.6-3.6-4.6-6c-0.3-0.8-0.8-1.6-0.1-2.4c1.4-1.3,2.4-2.9,3.7-4.3
		c1.3-1.5,1.8,0.4,2.5,0.8c0.9,0.4,0,1-0.3,1.3c-1.1,0.9-1.7,1.8-1.4,3.3c0.2,1.5,0.9,2.9,1.8,4.1c1.2,1.5,5,1.7,6.1,0.4
		c-5.2,0.8-6,0.3-6.9-4.5c0,0,0.1-0.1,0.1-0.1c1.2,0.6,1.7,1.9,2.6,2.8c1.3,1.4,3.7,1,4.4-0.8l0,0c0.8-0.3,1.6-0.8,1.4,0.8
		c0,0.1,0.2,0.3,0.3,0.3c0.1,0,0.3-0.1,0.3-0.2c0.3-1.6,1.2-3.1,0.5-5c0.1,1.3-0.4,2.2-0.7,3c-0.3-0.6-0.6-1.3-1-1.8
		c-0.5-0.7-0.8-1.3-0.5-2.2c0.4-0.9,1.1,0.2,1.5-0.3c-0.1-0.3-0.3-0.5-0.3-0.8c-0.1-0.5-0.5-1.1-0.1-1.4c0.2-0.2,0.9,0.1,1.3,0.3
		c1.1,0.6,2.2,1.2,3.3,1.8c0,0,0.1,0.1,0.1,0.1c0-0.1,0-0.1,0-0.2c-0.1-1.8-0.9-2.9-2.6-3.4c-0.9-0.3-1.9,0-2.7-0.8
		c-0.5-0.5,0.2-1.2-0.1-1.5c-1.5-1.6-2-3.9-3.8-5.2c0,0,0-0.1,0-0.1c-0.1-0.2-0.1-0.3-0.2-0.5c-0.1-0.6-0.3-1.2-0.4-1.8
		c1.4,0,2.9,0,4.3,0c0.6,0,0.9,0.2,1.2,0.7C52.3,50.9,55,54.6,58,58c0.5,0.6,1,0.7,1.4,0.1c0.9-1.2,1.5-2.6,2.5-3.7
		c0.9-1.2,1.2-2.7,2.5-3.7c0,0.7,0,1.2,0,1.7c-0.1,0.5-0.2,1-0.2,1.5c0,0.4-0.5,0.8-0.1,1.1c0.4,0.2,0.7-0.2,1-0.5
		c1.8-1.9,3.7-3.6,5-5.9c1.6-2.6,3.8-3.5,6-2.5c-0.2,0.9-0.3,1.9-0.6,2.8c-0.6,1.7-0.2,3.8-2,4.9c-0.1,0,0,0.4,0,0.4
		c0.2,0,0.4,0.1,0.6,0.1c1.1-0.1,2.3-0.2,3.4,0.3c-1.3,0.4-2.5,0.8-3.8,1.4c-0.9,0.4-1.8,1-1.8,2.3c0,0.2,0.1,0.4,0.1,0.6
		c0.2-0.1,0.4-0.2,0.6-0.2c1-0.5,2-1.1,3-1.6c0.8-0.4,1.2,0.3,1.6,0.7c0.5,0.6-0.1,0.9-0.4,1.1c-2,2-2.2,5.4-0.4,7.8
		c0.1-0.4,0.1-0.7,0.1-1c1.1-0.7,2,0.6,3,0.4c0.2,0,0.4,0,0.6,0.1c1,0.4,1.9,0.3,2.8-0.3c1.3-0.8,0.5-1.6,0.1-2.5
		c-0.3-0.7-0.1-1.6,0.6-1.8c0.7-0.2,0.9,0.7,1.2,1.2c0.3,0.5-0.4,0.8-0.5,1.3c0.6,0,0.6-0.6,1-0.8c0.3-0.2,0.8,0.4,0.9-0.2
		c0.1-0.6-0.5-0.8-0.8-1c-0.9-0.6-1.1-1.4-0.5-2.4c0.3-0.5,0.8-0.9,0.8-1.5c0-0.3,0.3-0.5,0.5-0.8c0.2,0.2,0.4,0.4,0.6,0.6
		c1.1,1.7,2.1,3.4,3.9,4.4c0.2,0.1,0.4,0.3,0.1,0.6c-0.7,0.9-1.3,1.9-2,2.8c-1.1,1.5-2.6,2.4-3.5,4c-2.3,1.5-4.6,3-7,4.3
		c3.1-0.2,6.3,1.3,9.2-0.9c1.7-1.3,3.5-2.4,5.2-3.6c0.3-0.2,0.7-0.4,1.2-0.7c-0.5,1.4-1.6,1.8-2.5,2.4c-3.7,2.3-6.6,5.5-8.8,9.2
		c-1.1,1.8-1.1,3.9,0.1,5.8c0.9,1.4,2,2.7,0.5,4.3c-1.4,1.1-2.9,2.2-4.2,3.4c-2.5,2.4-5.4,3.9-8.3,5.6c-2.6,1.5-5.2,3.1-7.8,4.6
		c-0.1,0.1-0.3,0.1-0.4,0.2c-0.2,0-0.3,0-0.5,0c-1.8-1.4-3.8-2.4-5.9-3.3C55.9,100.9,55.3,100.6,55.2,99.8z M21.1,38
		c-2.2,1.5-3.8,3.6-5.6,5.6c-2.9,3.3-5.4,6.9-6.1,11.5c-0.3,2.4,1,7.6,2.6,8.8c-0.3-6.1,2.8-10.7,6-15.4c0,1.7-0.1,3.3,0.6,4.8
		c-0.1-2.1-0.3-4.2,0-6.3C19,44,20.1,41,21.1,38c0.1,0,0.2,0,0.3-0.1c0,0-0.1-0.1-0.1-0.1C21.3,37.9,21.2,37.9,21.1,38z M65.2,77
		c-0.7-1-1.3-1.9-1.9-2.8c-0.6,0.8-1.6,1.5-1.7,2.4c-0.1,0.7,0.9,1.7,1.7,1.8C63.9,78.5,64.5,77.5,65.2,77z M82.7,67.8
		c1.4,0.1,3.5-2.4,3.3-4.1C85.3,65.6,84.3,67,82.7,67.8z M63.1,90c-0.3,0.1-0.9-0.1-1.1,0.5c0.9,0.2,1.8,0.4,2.7,0.5
		c0.1,0,0.2-0.2,0.3-0.3C64.5,90.3,63.9,90.1,63.1,90z M61.7,87.8c-0.2-0.3-0.5-0.5-0.9-0.5c-0.3,0-0.7,0.1-0.7,0.5
		c0,0.5,0.5,0.6,0.9,0.6C61.4,88.4,61.6,88.1,61.7,87.8z M65,88.2c0.3-0.1,0.7,0.3,0.7-0.3c0-0.5-0.5-0.5-0.8-0.6
		c-0.3,0-0.7,0.1-0.7,0.5C64.2,88.4,64.7,88.1,65,88.2z M18.9,54.5c0-0.2,0.1-0.3,0.1-0.4c0-0.1-0.1-0.1-0.1-0.2
		c0,0.1-0.1,0.1-0.1,0.2C18.8,54.2,18.8,54.3,18.9,54.5z M85.8,37.6c0-0.1,0-0.1,0-0.1c0,0-0.1,0-0.1,0
		C85.8,37.6,85.8,37.6,85.8,37.6z"/>
	<path fill="#345AA4" d="M94.6,57.2c1.4,0.6,2.6,0.3,3.6-0.8c0.3-0.2,0.7-0.2,1.1-0.3c0.8,0.9-0.4,0.8-0.6,1.2
		c-0.2,0.3-0.6,0.5-1,0.7c-0.1,0.1-0.2,0.1-0.3,0.2c-0.1,0-0.1,0-0.1,0.1c-1.4,0.3-2.7,0.2-4-0.2c-0.1,0.7-0.2,1.4-0.3,2.1
		c-0.1,0.7-0.2,1.5-0.2,2.2c-0.5,0.9-1,1.8-1.5,2.7c-0.6,0.8-1.3,1.7-1.9,2.5c-0.1,0.1-0.1,0.1-0.2,0.2l0,0.1c0,0.1-0.1,0.1-0.1,0.2
		c-0.2,0.2-0.4,0.3-0.6,0.5c-1.1,0.4-1.7,1.8-3.1,1.5c0.9-1.6,2.5-2.6,3.5-4c0.7-0.9,1.3-1.9,2-2.8c0.2-0.3,0-0.5-0.1-0.6
		c-1.8-1-2.8-2.7-3.9-4.4c-0.1-0.2-0.4-0.4-0.6-0.6c-0.2,0.3-0.4,0.5-0.5,0.8c-0.1,0.7-0.5,1-0.8,1.5c-0.6,1-0.4,1.8,0.5,2.4
		c0.4,0.3,0.9,0.5,0.8,1c-0.1,0.6-0.6,0-0.9,0.2c-0.4,0.2-0.4,0.8-1,0.8c0.2-0.5,0.8-0.8,0.5-1.3c-0.3-0.5-0.4-1.4-1.2-1.2
		c-0.7,0.2-0.9,1.1-0.6,1.8c0.4,0.9,1.1,1.7-0.1,2.5c-0.9,0.6-1.8,0.7-2.8,0.3c-0.2-0.1-0.4-0.1-0.6-0.1c-0.5-0.4-1-0.8-1.5-1.2
		c-0.4-0.3-0.8-1-1.3-0.7c-0.4,0.3-0.2,0.9-0.2,1.4c0,0.3-0.1,0.6-0.1,1c-1.8-2.5-1.6-5.8,0.4-7.8c0.3-0.3,0.9-0.6,0.4-1.1
		c-0.4-0.5-0.8-1.1-1.6-0.7c-1,0.5-2,1.1-3,1.6c-0.2,0.1-0.4,0.2-0.6,0.2c0-0.2-0.1-0.4-0.1-0.6c0-1.2,0.8-1.9,1.8-2.3
		c1.2-0.5,2.5-0.9,3.8-1.4c1.3,0,2.6,0,3.8-0.5c1.1,0,2.3,0,3.4,0.1c0.5,0,1.3,0.5,1.3-0.1c-0.1-0.7-0.3-2-1.3-2.1
		c-2.3-0.1-4.6-0.4-6.8,0.7c-0.4-0.1-0.6-0.3-0.5-0.7c2.3-0.6,4.7-0.5,7-0.5c0.6,0,0.6-0.2,0.4-0.6c-1.3-2.6-2.5-5.1-3.9-7.7
		c-1-1.9-2-3.8-2.2-6c-0.3-1.2-0.5-2.5-0.8-3.7c1.5,3.2,3.1,6.4,4.6,9.7c1.4,3.2,2.9,6.3,4.3,9.5c0.6,1.4,1.6,2.2,2.9,2.9
		C91.3,56.3,93,56.7,94.6,57.2z M78.3,58.9c-0.6,0.2-1.2,0.5-1.1,1.3c0.1,0.6,0.1,1.4,1,1.3c0.8,0,1.2-0.6,1.2-1.4
		C79.4,59.4,78.9,59.1,78.3,58.9z M91.2,56.9c-1.3-0.9-2.8-1.4-4.9-1.9C88.1,56.4,89.7,56.5,91.2,56.9z"/>
	<path fill="#345AA4" d="M111.5,92.3c-2,1.7-4,3.4-6.6,5c1.3-3.5,1-6.8,0.4-10.1c-0.3-1.5,1.5-2.3,2.1-3.6c0.8-1.5,1.9-3,2.6-4.6
		c0.7-0.5,0.9,0.3,1.1,0.6c0.3,0.7,0.5,1.4,0.7,2.1C112.9,85.3,111.9,88.8,111.5,92.3z"/>
	<path fill="#F1F8F9" d="M15.6,82.1c1.6,2.6,3.5,5,5.5,7.2c0.8,0.9-0.8,1.7-0.3,3c-2-1.8-3.8-3.3-5.8-4.5c-0.1-0.1-0.3-0.3-0.3-0.4
		C14.9,85.6,14.9,83.8,15.6,82.1z"/>
	<path fill="#F1F8F9" d="M111.5,92.3c0.3-3.5,1.3-7,0.3-10.5c-0.2-0.7-0.4-1.5-0.7-2.1c-0.2-0.3-0.3-1.1-1.1-0.6
		c0.8-1.8,1.7-3.5,2.4-5.3c0.7-1.8,1.2-3.8,1.7-5.7c0,1,0.1,1.9,0.1,2.9c-1.2,1-1.1,2.5-1.6,3.8c-1,2.6-0.3,5.3,0.2,8
		c0.6,2.9,0.4,6-0.3,8.9C112.5,92.2,112,92.3,111.5,92.3z"/>
	<path fill="#F1F8F9" d="M88.8,86.4c0-1.7,1.9-3.8,3.4-4c0.7-0.1,0.3,0.4,0.3,0.6c-0.4,1.3-0.8,2.5-1.2,3.7c-0.3,0.8-0.9,1.1-1.6,1
		C88.8,87.6,89,86.8,88.8,86.4z"/>
	<path fill="#F1F8F9" d="M92.9,62.4c0.1-0.7,0.1-1.5,0.2-2.2c0.1-0.7,0.2-1.4,0.3-2.1c1.4,0.4,2.7,0.4,4,0.2
		C95.7,59.4,94.5,61.1,92.9,62.4z"/>
	<path fill="#F1F8F9" d="M16.8,76.7c1.9,0.9,3.9,1.8,2.2,4.4C18,80,17.2,78.5,16.8,76.7z"/>
	<path fill="#F1F8F9" d="M34.1,82.4c1.7,1.3,2,3.2,2.9,4.7c0.1,0.1-0.1,0.4-0.3,0.5c-0.4,0.2-0.7,0-1-0.3
		C34.7,86,34.5,84.3,34.1,82.4z"/>
	<path fill="#345AA4" d="M107,57.3c-0.4,1.6-0.8,3.1-1.3,4.7c-0.1,0.3-0.2,0.7-0.8,0.4c-0.6-0.3-0.3-0.6-0.1-0.9
		c0.6-1.5,1.2-2.9,1.8-4.4C106.7,57.3,106.9,57.3,107,57.3z"/>
	<path fill="#F1F8F9" d="M89.4,67.6c0.6-0.8,1.3-1.7,1.9-2.5c0.1,1.4-1.4,3.2-2.8,3.4c0.2-0.2,0.4-0.3,0.6-0.5
		c0.1,0,0.1-0.1,0.1-0.2c0,0,0-0.1,0-0.1C89.3,67.7,89.4,67.7,89.4,67.6z"/>
	<path fill="#F1F8F9" d="M26.6,67.5c1-0.1,1,0.4,0.8,1.3C26.8,68.5,26.7,68,26.6,67.5C26.6,67.5,26.6,67.5,26.6,67.5z"/>
	<path fill="#345AA4" d="M16.8,104.6c-0.1-0.1-0.2-0.1-0.3-0.2c0,0,0.1-0.1,0.1-0.1C16.7,104.4,16.7,104.5,16.8,104.6
		C16.8,104.6,16.8,104.6,16.8,104.6z"/>
	<path fill="#F1F8F9" d="M97.6,58.2c0.1-0.1,0.2-0.1,0.3-0.2C97.7,58.1,97.6,58.1,97.6,58.2z"/>
	<path fill="#F1F8F9" d="M86.8,114.2c-0.8,1.6-2.4,2-3.9,2.1c-1.4,0.1-2,0.7-2.2,2c-0.1,0.9-0.4,1.1-1.4,0.9
		c-3.4-0.8-6.6-2.1-9.8-3.5c-0.9-0.4-2-1-2.5-2.1l0,0c2.3,1.1,4.6,2.3,7.1,2.8c1.8,0.4,3.5,0.3,5.3,0.2c0.9-0.1,1.8-0.3,1.8-1.6
		c0-0.6,0.7-0.6,1.1-0.9c0.4-0.2,0.8-0.4,0.7-1C84.3,113.6,85.6,113.9,86.8,114.2z"/>
	<path fill="#7DC0E6" d="M77.2,102.8c-0.1,0-0.2-0.1-0.3-0.1c0,0,0.1,0,0.1,0C77.1,102.7,77.2,102.8,77.2,102.8
		C77.2,102.8,77.2,102.8,77.2,102.8z"/>
	<path fill="#345AA4" d="M62.4,104.6c0.2,0,0.3,0,0.5,0c0,0.2,0.1,0.6-0.3,0.5C62.2,105.1,62.4,104.8,62.4,104.6z"/>
	<path fill="#F1F8F9" d="M66.3,113.1c-0.2,0-0.3,0.1-0.3,0.1c-0.1,0-0.1-0.2-0.1-0.2c0.1,0,0.1-0.1,0.2-0.1
		C66.1,112.9,66.2,113,66.3,113.1z"/>
	<path fill="#F1F8F9" d="M67,113.7c-0.1,0-0.2,0-0.3-0.1c0,0,0-0.1,0-0.1C66.9,113.6,66.9,113.6,67,113.7
		C67,113.7,67,113.7,67,113.7z"/>
	<path fill="#7DC0E6" d="M19.1,105.7c-0.1,0.5-0.6,0.5-0.9,0.7c-0.2,0.1-0.3-0.1-0.3-0.3c0.1-0.5,0.4-0.8,0.8-0.9
		C19,105.2,19.1,105.4,19.1,105.7z"/>
	<path fill="#7DC0E6" d="M42.4,45.3c-1.2-3.8,0.9-7,2.1-10.3c0.6-1.7,1.3-3.5,2-5.2c-0.5,2.9-0.6,5.9-1,8.8c-0.3,2-0.2,4.1-0.8,6.1
		c-0.1,0.2,0.1,0.6,0.2,0.6c1.4,0.1,2.8,0.2,4.2,0.1c0.4,0,0-0.6-0.1-0.8C45.6,39,45.9,33,47.7,26.9c0,0,0-0.1,0-0.1
		c0.3-0.5,0.4-1.3,0.9-1.3c0.5,0.1,0.2,0.9,0.2,1.4c-0.2,3.9-0.2,7.9,1.2,11.6c0.8,2,2.1,3.9,3.2,5.9c1.1,1.9,2,3.9,3.4,5.6
		c0.6,0.7,1,0.8,1.6,0.1c4.1-4,6.9-8.9,9.1-14.2c1-2.2,2.4-4.2,2.3-6.8c0-0.5,0.8-0.4,1,0.2c0.1,0.2,0.1,0.5,0.2,1.1
		c0.6-1.3,0.6-2.5,1.4-3.4c0,0.1,0.1,0.2,0,0.3c-1.4,6.1-1.8,12.5-4.1,18.4c-0.9,2.3-0.3,5.7-3.7,6.6c0-0.5,0-1.1,0-1.7
		c-1.3,1-1.6,2.6-2.5,3.7c-0.9,1.2-1.6,2.5-2.5,3.7c-0.4,0.6-1,0.5-1.4-0.1c-3-3.5-5.7-7.2-7.9-11.3C49.9,46.2,49.6,46,49,46
		c-1.4,0-2.9,0-4.3,0C43.8,46.1,43.4,44.7,42.4,45.3z M69.9,30.2C69.9,30.2,69.9,30.2,69.9,30.2C69.9,30.3,70,30.3,69.9,30.2
		C70,30.2,70,30.2,69.9,30.2C70,30.2,69.9,30.2,69.9,30.2z"/>
	<path fill="#345AA4" d="M54.4,59.3c-1.1-0.6-2.2-1.2-3.3-1.8c-0.4-0.2-1.1-0.5-1.3-0.3c-0.4,0.4,0,0.9,0.1,1.4
		c0.1,0.3,0.2,0.5,0.3,0.8c-0.4,0.5-1.1-0.7-1.5,0.3c-0.4,0.9,0,1.5,0.5,2.2c0.4,0.6,0.6,1.2,1,1.8c0.4-0.9,0.8-1.8,0.7-3
		c0.8,1.9-0.2,3.4-0.5,5c0,0.1-0.2,0.3-0.3,0.2c-0.1,0-0.3-0.2-0.3-0.3c0.3-1.6-0.6-1.1-1.4-0.8c0.1-0.2,0.1-0.5,0.2-0.7
		c0.4-0.7,0.2-1.2-0.3-1.7c-0.5-0.5-1.1-0.4-1.6-0.2c-0.7,0.3-0.5,0.9-0.5,1.4c0.1,1.6,1.3,1,2.2,1.2c-0.7,1.7-3,2.1-4.4,0.8
		c-0.9-0.9-1.4-2.1-2.6-2.8c0-0.1-0.1-0.1-0.1-0.2c0,0.1,0,0.2,0,0.2c0.9,4.8,1.7,5.3,6.9,4.5c-1.1,1.3-5,1.1-6.1-0.4
		c-0.9-1.2-1.5-2.5-1.8-4.1c-0.2-1.5,0.4-2.5,1.4-3.3c0.4-0.3,1.3-0.8,0.3-1.3c-0.8-0.4-1.2-2.3-2.5-0.8c-1.2,1.4-2.3,3-3.7,4.3
		c-0.8,0.7-0.2,1.6,0.1,2.4c1,2.4,2.9,4.2,4.6,6c0.1,0.1,0.2,0.2,0.3,0.4c0,0,0,0,0,0c0.1,0.2,0.1,0.3,0.2,0.5c-0.2,0-0.4,0-0.5-0.1
		c-3.1-3-6.5-5.7-7.7-10.2c0.3-2-0.2-3.2-2.5-2.4c-0.4,0.1-0.8,0.1-1.2,0.1c0-0.1,0-0.3,0-0.4c1-0.1,1.8-0.8,2.6-1.3
		c1.4-0.6,2.7-1.2,4.1-1.8c2.8-1.3,5.8-0.8,8.7-0.9c1.5,0.2,2.9,0.2,4.3,0.9c0.7,0.8,1.8,0.5,2.7,0.8C53.5,56.4,54.4,57.5,54.4,59.3
		C54.4,59.3,54.4,59.3,54.4,59.3z M44.5,61.5c-0.2-0.8-0.6-1.6-1.5-1.6c-0.5,0-1.2,0.5-1.1,1.3C42,62,42.3,63,43.2,63
		C43.9,63.1,44.4,62.4,44.5,61.5z"/>
	<path fill="#345AA4" d="M64.4,52.4c3.4-0.9,2.8-4.3,3.7-6.6c2.4-5.9,2.8-12.3,4.1-18.4c0-0.1,0-0.2,0-0.3c0.3-1.6,0.6-3.3,0.6-5
		c1.6,2.8,2.5,5.9,3.3,9c0,0.6,0,1.3,0,1.9c-0.1,2.6,0.7,5.2-0.1,7.7c-1.1,1.6-1.8,3.4-3.3,4.6c1.1,0.8,2.2,0.9,3.3,0
		c0.7-0.1,1.4-0.2,2.1-0.3c1,0,1.9,0,3.2,0c-1.2,1.1-2.4,0.3-3.3,0.9c-0.7,0.1-1.3,0.1-2,0.2c-2.2-1-4.4-0.1-6,2.5
		c-1.4,2.2-3.2,4-5,5.9c-0.3,0.3-0.6,0.7-1,0.5c-0.4-0.3,0.1-0.7,0.1-1.1C64.3,53.5,64.4,53,64.4,52.4z"/>
	<path fill="#7DC0E6" d="M94.6,57.2c-1.6-0.5-3.3-0.9-4.9-1.7c-1.3-0.7-2.3-1.4-2.9-2.9c-1.3-3.2-2.8-6.3-4.3-9.5
		c1.1-0.2,1.5,0.1,1.9,1.4c0.7,2.3,1.9,4.5,3.4,6.4c0.3,0.4,0.9,0.8,1.3,0.5c0.2-0.2,0.2-0.9,0.1-1.3c-0.9-3-1.3-6.2-3-9
		c-0.5-0.8,0.2-1.9-0.2-2.4c0,0.7,1.8,0.7,1.6,2.1c-0.1,0.4,0.6,0.4,0.7,0.3c0.7-0.7,2.2-0.9,2.1-2.4c0-0.3-0.1-0.8,0.4-0.9
		c0.4,0,0.7,0.3,0.8,0.6c0.7,2.3,2,4.4,2.4,6.9C94.6,49.3,95.1,53.3,94.6,57.2z"/>
	<path fill="#7DC0E6" d="M36.1,55.1c-1.4,0.6-2.7,1.2-4.1,1.8c-0.5-3.6-0.5-7.1-0.1-10.8c0.5-5.6,3-10.4,5.5-15.3
		c1.6-3,4.2-5.3,5.6-8.5c0.2-0.4,0.8-0.5,1.2-0.8c0,0.1,0,0.1,0.1,0.1c-0.8,2.4-2.5,4.3-3.6,6.6c-2.1,4-3.4,8.3-4.5,12.6
		c-0.8,2.9-1.4,5.9-2.2,9c2.4-1.2,4-3,5.5-4.9c0.4-0.5,0.7-1,1.3-1.3c0.4,0.9-0.2,1.5-0.5,2.3c-1.1,3-3.3,5.3-4.6,8.1
		C35.5,54.5,35.1,55,36.1,55.1z"/>
	<path fill="#7DC0E6" d="M21.2,38c-1.1,3-2.2,5.9-2.5,9.1c-0.2,2.1,0,4.2,0,6.3c-0.7-1.5-0.6-3.1-0.6-4.8c-3.2,4.7-6.3,9.3-6,15.4
		c-1.6-1.2-2.9-6.4-2.6-8.8c0.6-4.6,3.1-8.2,6.1-11.5C17.3,41.6,18.9,39.5,21.2,38L21.2,38z"/>
	<path fill="#7DC0E6" d="M29.4,58.2c0,0.1,0,0.3,0,0.4c0.6,1.9,2,2.3,3.7,2.3c1.2,4.5,4.7,7.2,7.7,10.2c0.1,0.1,0.3,0.1,0.5,0.1
		c0-0.2-0.1-0.3-0.2-0.5c1,0.4,1.5,1.2,2.1,2c0.1,0.2,0.5,0.4,0.1,0.6c-0.2,0.1-0.5,0.1-0.7,0c-2.6-1-5.2-1.9-7.6-3.2
		c-3.1-1.6-5.4-4.2-6.1-7.7c-0.2-1.2,0.1-2.5-0.8-3.6l0,0c-0.5-1.6-1-3.2-1.6-4.8c-0.1-0.4-0.3-0.8-0.1-1.3c0.8,1.2,0.9,2.8,1.6,4.1
		c0.2,0.4,0.2,1.2,1,0.9C29.2,57.9,29.3,58,29.4,58.2z"/>
	<path fill="#7DC0E6" d="M76.1,40.6c0.7-2.6-0.1-5.1,0.1-7.7c0-0.6,0-1.3,0-1.9c0.8,0.6,1.6,1.3,1.8,2.5c0.3,1.2,0.5,2.5,0.8,3.7
		c0,0.4-0.2,0.8-0.1,1.2c0.2,2.3,0.1,4.5-0.4,6.7c-0.7,0.1-1.4,0.2-2.1,0.3C76.1,43.8,76.1,42.2,76.1,40.6z"/>
	<path fill="#7DC0E6" d="M76.2,46.2c0.7-0.1,1.3-0.1,2-0.2c-0.2,2-0.4,4-0.6,6c-0.1,0.4,0.1,0.6,0.5,0.7c0,0.3-0.8,0.5-0.1,0.8
		c0.8,0.4,1.6,0.7,2.5,0.4c0.4-0.1,0.7-0.4,0.9,0.2c-1.2,0.5-2.5,0.5-3.8,0.5c-1.1-0.5-2.2-0.4-3.4-0.3c-0.2,0-0.4,0-0.6-0.1
		c0,0-0.1-0.3,0-0.4c1.8-1.1,1.4-3.2,2-4.9C75.9,48.1,76,47.1,76.2,46.2z"/>
	<path fill="#7DC0E6" d="M49.1,55.1c-1.4-0.7-2.9-0.7-4.3-0.9c-0.5-0.9-1.3-0.1-2.1-0.6c0.7-0.2,1.3-0.5,1.8-0.6
		c0.3,0,0.8,0.4,1-0.2c0.2-0.7-0.6-0.5-0.8-0.8c0.5-0.2,0.2-0.3,0-0.5c-0.2-0.6-0.4-1.1-0.6-1.7c0.9-0.1,0.2-1.4,1.1-1.5
		c1.8,1.4,2.3,3.6,3.8,5.2C49.4,53.9,48.6,54.6,49.1,55.1z"/>
	<path fill="#345AA4" d="M65.2,77c-0.6,0.5-1.3,1.5-1.8,1.4c-0.8-0.1-1.8-1.1-1.7-1.8c0.1-0.9,1.1-1.6,1.7-2.4
		C63.9,75.1,64.5,76,65.2,77z"/>
	<path fill="#345AA4" d="M45.3,48.4c-0.8,0.2-0.2,1.4-1.1,1.5c-0.3-0.8-0.8-1.7-1-2.5c-0.2-1.2-0.7-1.7-1.9-1.7
		c0.4-0.1,0.7-0.2,1.1-0.3c1-0.6,1.4,0.7,2.3,0.7c0.1,0.6,0.3,1.2,0.4,1.8c0.1,0.2,0.1,0.3,0.2,0.5C45.3,48.3,45.3,48.3,45.3,48.4z"
		/>
	<path fill="#345AA4" d="M44.4,21.7c-0.1,0-0.1,0-0.1-0.1c1.7-2.7,4.1-4.7,6.6-6.5C48.5,17.1,46.6,19.6,44.4,21.7z"/>
	<path fill="#345AA4" d="M29.1,57.7c-0.8,0.3-0.8-0.5-1-0.9c-0.7-1.3-0.8-2.8-1.6-4.1c0-0.4,0-0.9-0.1-1.3
		C27.1,53.7,28.4,55.6,29.1,57.7z"/>
	<path fill="#7DC0E6" d="M76.6,65.7c0-0.5-0.3-1.2,0.2-1.4c0.5-0.3,0.9,0.4,1.3,0.7c0.5,0.4,1,0.8,1.5,1.2
		C78.6,66.3,77.7,65,76.6,65.7z"/>
	<path fill="#345AA4" d="M82.7,67.8c1.7-0.8,2.6-2.2,3.3-4.1C86.2,65.4,84.1,67.9,82.7,67.8z"/>
	<path fill="#345AA4" d="M44.8,51.6c0.2,0.2,0.5,0.3,0,0.5c-1.2,0.2-2.5,0.3-3.7,0.5c0-0.1,0-0.2-0.1-0.4
		C42.3,52,43.6,51.8,44.8,51.6z"/>
	<path fill="#345AA4" d="M63.1,90c0.8,0,1.4,0.2,2,0.7c-0.1,0.1-0.2,0.3-0.3,0.3c-0.9-0.2-1.8-0.3-2.7-0.5
		C62.2,89.9,62.8,90.2,63.1,90z"/>
	<path fill="#345AA4" d="M61.7,87.8c-0.1,0.4-0.3,0.6-0.7,0.6c-0.4,0-0.8-0.1-0.9-0.6c0-0.4,0.3-0.5,0.7-0.5
		C61.2,87.3,61.5,87.4,61.7,87.8z"/>
	<path fill="#345AA4" d="M65,88.2c-0.3-0.1-0.8,0.2-0.8-0.4c0-0.4,0.4-0.5,0.7-0.5c0.3,0,0.8,0.1,0.8,0.6
		C65.7,88.5,65.2,88.2,65,88.2z"/>
	<path fill="#7DC0E6" d="M18.9,54.5c-0.1-0.2-0.1-0.3-0.1-0.4c0-0.1,0.1-0.1,0.1-0.2c0,0.1,0.1,0.1,0.1,0.2
		C19,54.2,18.9,54.3,18.9,54.5z"/>
	<path fill="#7DC0E6" d="M21.1,38c0.1-0.1,0.2-0.1,0.2-0.2c0,0,0,0,0.1,0.1C21.3,38,21.2,38,21.1,38C21.2,38,21.1,38,21.1,38z"/>
	<path fill="#7DC0E6" d="M45.3,48.3c-0.1-0.2-0.1-0.3-0.2-0.5C45.1,47.9,45.2,48.1,45.3,48.3z"/>
	<path fill="#7DC0E6" d="M85.8,37.6c0-0.1,0-0.1,0-0.1c0,0,0.1,0,0.1,0C85.8,37.5,85.8,37.6,85.8,37.6z"/>
	<path fill="#7DC0E6" d="M41.1,70.6c-0.1-0.1-0.2-0.2-0.3-0.4C40.9,70.4,41,70.5,41.1,70.6z"/>
	<path fill="#345AA4" d="M54.5,59.2c0,0.1,0,0.1,0,0.2C54.5,59.4,54.4,59.4,54.5,59.2C54.4,59.3,54.4,59.3,54.5,59.2z"/>
	<path fill="#7DC0E6" d="M28.1,58.9C28.1,58.9,28.1,58.9,28.1,58.9C28.1,58.9,28.1,58.9,28.1,58.9C28.1,58.9,28.1,58.9,28.1,58.9z"
		/>
	<path fill="#F1F8F9" d="M77.5,52c0.2-2,0.4-4,0.6-6c0.9-0.6,2.1,0.2,3.3-0.9c-1.3,0-2.3,0-3.2,0c0.5-2.2,0.6-4.5,0.4-6.7
		c0-0.4,0.1-0.8,0.1-1.2c0.2,2.2,1.2,4.1,2.2,6c1.3,2.5,2.6,5.1,3.9,7.7c0.2,0.4,0.3,0.6-0.4,0.6C82.1,51.5,79.8,51.4,77.5,52z"/>
	<path fill="#F1F8F9" d="M81.3,54.2c-0.2-0.6-0.6-0.4-0.9-0.2c-0.9,0.3-1.7,0-2.5-0.4C77.2,53.2,78,53,78,52.7
		c2.2-1.1,4.5-0.8,6.8-0.7c1,0,1.2,1.3,1.3,2.1c0.1,0.6-0.8,0.1-1.3,0.1C83.6,54.2,82.5,54.2,81.3,54.2z"/>
	<path fill="#F1F8F9" d="M78.3,58.9c0.6,0.2,1.1,0.5,1.1,1.2c0,0.8-0.5,1.4-1.2,1.4c-0.8,0-0.9-0.8-1-1.3
		C77.1,59.4,77.7,59.1,78.3,58.9z"/>
	<path fill="#F1F8F9" d="M91.2,56.9c-1.5-0.4-3.1-0.5-4.9-1.9C88.4,55.5,89.9,56.1,91.2,56.9z"/>
	<path fill="#7DC0E6" d="M89.2,67.8c0,0.1,0,0.1-0.1,0.2C89.2,67.9,89.2,67.9,89.2,67.8z"/>
	<path fill="#7DC0E6" d="M89.4,67.6c-0.1,0.1-0.1,0.1-0.2,0.2C89.3,67.7,89.4,67.7,89.4,67.6z"/>
	<path fill="#F1F8F9" d="M69.9,30.2C69.9,30.2,70,30.2,69.9,30.2C70,30.2,70,30.2,69.9,30.2C70,30.3,69.9,30.3,69.9,30.2
		C69.9,30.2,69.9,30.2,69.9,30.2z"/>
	<path fill="#F1F8F9" d="M33.1,60.9c-1.7,0-3.1-0.4-3.7-2.3c0.4,0,0.8,0,1.2-0.1C32.9,57.7,33.4,58.8,33.1,60.9z"/>
	<path fill="#F1F8F9" d="M44.5,61.5c0,0.9-0.6,1.5-1.2,1.5c-1-0.1-1.2-1-1.3-1.9c-0.1-0.8,0.5-1.3,1.1-1.3
		C43.8,59.9,44.3,60.7,44.5,61.5z"/>
	<path fill="#F1F8F9" d="M48.5,64.9c-0.8-0.2-2.1,0.5-2.2-1.2c0-0.5-0.2-1.2,0.5-1.4c0.6-0.2,1.2-0.3,1.6,0.2c0.5,0.5,0.7,1,0.3,1.7
		C48.6,64.4,48.6,64.6,48.5,64.9C48.5,64.9,48.5,64.9,48.5,64.9z"/>
	<path fill="#F1F8F9" d="M41.5,62.9c0-0.1,0-0.2,0-0.2C41.5,62.7,41.6,62.8,41.5,62.9C41.6,62.9,41.5,62.9,41.5,62.9z"/>
	<path fill="#F1F8F9" d="M76.1,40.6c0,1.6,0,3.1,0,4.7c-1.1,0.8-2.2,0.7-3.3,0C74.3,44.1,75,42.2,76.1,40.6z"/>
</g>
<g>
</g>
<g>
</g>
<g>
</g>
<g>
</g>
<g>
</g>
<g>
</g>
</svg>
